<svg width="73" height="73" viewBox="0 0 73 73" fill="none" xmlns="http://www.w3.org/2000/svg">
<path d="M31.8111 2.42506C32.6558 1.5126 33.8012 1 34.9956 1C36.1899 1 37.3354 1.5126 38.1801 2.42506L48.5082 13.5856V7.2923C48.5082 6.64686 48.7455 6.02786 49.1678 5.57147C49.5902 5.11508 50.163 4.85868 50.7603 4.85868H55.2645C55.8618 4.85868 56.4347 5.11508 56.857 5.57147C57.2794 6.02786 57.5166 6.64686 57.5166 7.2923V23.3201L68.1196 34.7727C68.329 34.999 68.4951 35.2676 68.6084 35.5632C68.7217 35.8589 68.78 36.1757 68.78 36.4957C68.78 36.8157 68.7217 37.1326 68.6084 37.4282C68.4951 37.7238 68.329 37.9925 68.1196 38.2187C67.9102 38.445 67.6616 38.6245 67.388 38.7469C67.1144 38.8694 66.8212 38.9324 66.5251 38.9324C66.229 38.9324 65.9357 38.8694 65.6621 38.7469C65.3886 38.6245 65.14 38.445 64.9306 38.2187L34.9956 5.8662L12.4745 30.2024V60.8319C12.4745 61.4773 12.7118 62.0964 13.1341 62.5527C13.5565 63.0091 14.1293 63.2655 14.7266 63.2655H32.7435C33.3408 63.2655 33.9136 63.5219 34.3359 63.9783C34.7583 64.4347 34.9956 65.0537 34.9956 65.6992C34.9956 66.3446 34.7583 66.9636 34.3359 67.42C33.9136 67.8764 33.3408 68.1328 32.7435 68.1328H14.7266C12.9347 68.1328 11.2162 67.3636 9.94917 65.9944C8.68211 64.6252 7.97029 62.7682 7.97029 60.8319V35.0696L5.06056 38.2187C4.85117 38.445 4.60259 38.6245 4.32901 38.7469C4.05542 38.8694 3.7622 38.9324 3.46607 38.9324C3.16995 38.9324 2.87672 38.8694 2.60314 38.7469C2.32956 38.6245 2.08097 38.445 1.87158 38.2187C1.66219 37.9925 1.49609 37.7238 1.38277 37.4282C1.26945 37.1326 1.21112 36.8157 1.21112 36.4957C1.21112 36.1757 1.26945 35.8589 1.38277 35.5632C1.49609 35.2676 1.66219 34.999 1.87158 34.7727L31.8111 2.42506Z" fill="#BF9455" stroke="#BF9455"/>
<path d="M55.2645 73C59.4456 73 63.4554 71.2052 66.4119 68.0105C69.3683 64.8157 71.0293 60.4827 71.0293 55.9647C71.0293 51.4466 69.3683 47.1136 66.4119 43.9189C63.4554 40.7241 59.4456 38.9293 55.2645 38.9293C51.0834 38.9293 47.0736 40.7241 44.1171 43.9189C41.1607 47.1136 39.4998 51.4466 39.4998 55.9647C39.4998 60.4827 41.1607 64.8157 44.1171 68.0105C47.0736 71.2052 51.0834 73 55.2645 73ZM62.8271 51.1315L56.814 61.966C56.5497 62.442 56.1885 62.8466 55.7578 63.149C55.3271 63.4515 54.8382 63.6438 54.3283 63.7114C53.8185 63.779 53.3011 63.72 52.8155 63.539C52.3299 63.358 51.8889 63.0597 51.526 62.6668L48.0397 58.9045C47.6175 58.4475 47.3805 57.828 47.3809 57.1822C47.3813 56.5364 47.6191 55.9172 48.042 55.4609C48.4649 55.0046 49.0382 54.7485 49.6358 54.7489C50.2335 54.7494 50.8064 55.0064 51.2287 55.4633L53.6925 58.1257L58.9625 48.6297C59.1145 48.3555 59.315 48.1164 59.5525 47.9259C59.7901 47.7354 60.06 47.5974 60.347 47.5196C60.6339 47.4419 60.9322 47.426 61.2248 47.4728C61.5174 47.5196 61.7986 47.6283 62.0524 47.7926C62.3061 47.9568 62.5274 48.1735 62.7037 48.4302C62.88 48.6869 63.0077 48.9786 63.0797 49.2886C63.1516 49.5987 63.1663 49.921 63.123 50.2372C63.0796 50.5534 62.9791 50.8573 62.8271 51.1315Z" fill="#BF9455"/>
</svg>
