<svg width="72" height="72" viewBox="0 0 72 72" fill="none" xmlns="http://www.w3.org/2000/svg">
<g clip-path="url(#clip0_223_157)">
<path d="M66.8572 36.9028C66.8089 42.2571 65.2795 47.4936 62.4384 52.0322C59.5972 56.5708 55.5552 60.2343 50.76 62.6171L36 70.6399L21.24 62.9257C16.3981 60.5194 12.3251 56.8078 9.4808 52.2095C6.63645 47.6113 5.13394 42.3096 5.14286 36.9028V8.92566C5.14286 7.56169 5.6847 6.25359 6.64917 5.28911C7.61364 4.32464 8.92175 3.78281 10.2857 3.78281H61.7143C63.0783 3.78281 64.3864 4.32464 65.3508 5.28911C66.3153 6.25359 66.8572 7.56169 66.8572 8.92566V36.9028Z" stroke="#BF9455" stroke-width="5" stroke-linecap="round" stroke-linejoin="round"/>
<path d="M28.2857 42.3542C28.2857 44.4002 29.0985 46.3623 30.5452 47.8091C31.9919 49.2558 33.954 50.0685 36 50.0685M36 50.0685C37.0327 50.1453 38.0698 49.9985 39.0406 49.638C40.0114 49.2775 40.893 48.7118 41.6253 47.9795C42.3575 47.2473 42.9232 46.3657 43.2837 45.3949C43.6442 44.4241 43.7911 43.3869 43.7143 42.3542C43.7143 34.6399 28.2857 34.6399 28.2857 26.9257C28.2089 25.8929 28.3557 24.8558 28.7163 23.885C29.0768 22.9142 29.6424 22.0326 30.3747 21.3004C31.107 20.5681 31.9886 20.0024 32.9594 19.6419C33.9301 19.2814 34.9673 19.1345 36 19.2114M36 50.0685V55.2114M36 19.2114C38.046 19.2114 40.0081 20.0241 41.4548 21.4708C42.9015 22.9175 43.7143 24.8797 43.7143 26.9257M36 19.2114V14.0685" stroke="#BF9455" stroke-width="5" stroke-linecap="round" stroke-linejoin="round"/>
</g>
<defs>
<clipPath id="clip0_223_157">
<rect width="72" height="72" fill="white"/>
</clipPath>
</defs>
</svg>
