<svg width="72" height="72" viewBox="0 0 72 72" fill="none" xmlns="http://www.w3.org/2000/svg">
<g clip-path="url(#clip0_223_149)">
<path d="M27.8279 22.769C27.8442 22.9098 27.8535 23.053 27.8535 23.1985V29.0174C27.8535 29.9434 27.4857 30.8314 26.8309 31.4862C26.1761 32.141 25.2881 32.5088 24.3621 32.5088C23.4361 32.5088 22.5481 32.141 21.8933 31.4862C21.2386 30.8314 20.8707 29.9434 20.8707 29.0174V23.1985C20.8688 22.3084 21.2069 21.4513 21.8159 20.8022C22.4248 20.1531 23.2587 19.7611 24.147 19.7063C25.0353 19.6514 25.9111 19.9379 26.5952 20.5072C27.2794 21.0765 27.7203 21.8855 27.8279 22.769Z" fill="#BF9455"/>
<path d="M21.1919 32.4271C20.7263 31.9951 20.3543 31.4722 20.0989 30.8907C19.8435 30.3092 19.71 29.6814 19.7069 29.0463C18.9271 31.1935 18.5431 33.549 18.5431 35.9988C18.5431 40.725 19.9699 45.0997 22.9224 48.3071C25.8901 51.5296 30.2916 53.4546 35.9988 53.4546C41.7061 53.4546 46.1075 51.5296 49.074 48.3071C52.0266 45.1008 53.4546 40.725 53.4546 35.9988C53.4546 31.2727 52.0266 26.8968 49.074 23.6905C46.1064 20.468 41.7061 18.5431 36 18.5431C32.9008 18.5431 30.1868 19.111 27.8779 20.1456C28.3865 20.731 28.7507 21.4444 28.9183 22.2312C30.8863 21.363 33.2406 20.8707 35.9977 20.8707C41.1533 20.8707 44.8983 22.5931 47.3609 25.2675C49.8386 27.957 51.1258 31.7265 51.1258 35.9977C51.1258 40.2699 49.8386 44.0395 47.3609 46.7302C44.8983 49.4046 41.1544 51.127 35.9977 51.127C30.8421 51.127 27.097 49.4046 24.6344 46.7302C22.1567 44.0418 20.8707 40.2711 20.8707 36C20.8707 34.7629 20.9789 33.5677 21.1919 32.4271Z" fill="#BF9455"/>
<path d="M29.5991 34.2543C28.3003 34.2543 27.8499 35.0341 27.794 35.204C27.6965 35.4969 27.4866 35.7391 27.2105 35.8772C26.9344 36.0154 26.6147 36.0382 26.3218 35.9406C26.0289 35.8431 25.7867 35.6332 25.6486 35.3571C25.5104 35.081 25.4876 34.7614 25.5851 34.4685C25.9168 33.4734 27.1737 31.9267 29.5991 31.9267C32.0256 31.9267 33.2813 33.4746 33.613 34.4685C33.7105 34.7614 33.6877 35.081 33.5495 35.3571C33.4114 35.6332 33.1692 35.8431 32.8763 35.9406C32.5834 36.0382 32.2637 36.0154 31.9876 35.8772C31.7115 35.7391 31.5016 35.4969 31.4041 35.204C31.3482 35.0352 30.8978 34.2543 29.5991 34.2543ZM42.4008 34.2543C41.102 34.2543 40.6516 35.0341 40.5957 35.204C40.4982 35.4969 40.2883 35.7391 40.0122 35.8772C39.7361 36.0154 39.4165 36.0382 39.1235 35.9406C38.8306 35.8431 38.5884 35.6332 38.4503 35.3571C38.3121 35.081 38.2893 34.7614 38.3869 34.4685C38.7185 33.4734 39.9754 31.9267 42.4008 31.9267C44.8261 31.9267 46.083 33.4746 46.4147 34.4685C46.5122 34.7614 46.4894 35.081 46.3513 35.3571C46.2131 35.6332 45.9709 35.8431 45.678 35.9406C45.3851 36.0382 45.0654 36.0154 44.7893 35.8772C44.5133 35.7391 44.3034 35.4969 44.2058 35.204C44.15 35.0352 43.6996 34.2543 42.4008 34.2543ZM31.0631 46.1553C32.3698 44.8427 34.1439 44.1024 35.996 44.0967C37.848 44.091 39.6267 44.8205 40.9414 46.125C41.1605 46.3425 41.4571 46.4639 41.7658 46.4627C42.0745 46.4615 42.3701 46.3377 42.5876 46.1186C42.805 45.8995 42.9265 45.6029 42.9253 45.2942C42.9241 44.9855 42.8003 44.6899 42.5812 44.4724C40.8289 42.7339 38.4584 41.7616 35.99 41.769C33.5216 41.7764 31.157 42.7629 29.4152 44.512C29.3042 44.6195 29.2157 44.748 29.1549 44.8901C29.0941 45.0322 29.0623 45.1849 29.0611 45.3395C29.06 45.494 29.0897 45.6472 29.1484 45.7901C29.2071 45.9331 29.2937 46.0629 29.4031 46.172C29.5126 46.2811 29.6426 46.3673 29.7857 46.4256C29.9288 46.484 30.0821 46.5132 30.2366 46.5116C30.3912 46.5101 30.5438 46.4778 30.6857 46.4166C30.8276 46.3554 30.9559 46.2666 31.0631 46.1553Z" fill="#BF9455"/>
<path d="M72 36C72 28.8799 69.8886 21.9197 65.9329 15.9995C61.9772 10.0793 56.3547 5.46511 49.7766 2.74035C43.1985 0.0155969 35.9601 -0.697323 28.9768 0.691744C21.9934 2.08081 15.5789 5.50948 10.5442 10.5442C5.50948 15.5789 2.08081 21.9934 0.691741 28.9768C-0.697328 35.9601 0.0155926 43.1985 2.74035 49.7766C5.4651 56.3547 10.0793 61.9772 15.9995 65.9329C21.9196 69.8886 28.8799 72 36 72C45.5478 72 54.7045 68.2072 61.4558 61.4558C68.2072 54.7045 72 45.5478 72 36ZM36 4.50001C43.5693 4.50216 50.882 7.24345 56.5875 12.2175L12.2175 56.5875C8.27703 52.0243 5.7289 46.426 4.87571 40.4576C4.02251 34.4891 4.9001 28.4012 7.40425 22.9167C9.9084 17.4322 13.9339 12.7816 19.0028 9.51703C24.0716 6.25251 29.9709 4.51125 36 4.50001ZM15.4125 59.7825L59.7825 15.4125C64.8272 21.4501 67.4298 29.1569 67.0784 37.0167C66.727 44.8766 63.447 52.3204 57.8837 57.8837C52.3204 63.447 44.8766 66.727 37.0167 67.0784C29.1569 67.4298 21.4501 64.8272 15.4125 59.7825Z" fill="#BF9455"/>
</g>
<defs>
<clipPath id="clip0_223_149">
<rect width="72" height="72" fill="white"/>
</clipPath>
</defs>
</svg>
