<svg width="72" height="72" viewBox="0 0 72 72" fill="none" xmlns="http://www.w3.org/2000/svg">
<path d="M48 32.3999V32.4359M14.3074 22.9607C12.8037 21.7472 11.6487 20.1207 10.9703 18.261C10.2918 16.4014 10.1163 14.3809 10.463 12.4231C10.8098 10.4652 11.6654 8.64613 12.9352 7.1669C14.205 5.68766 15.8396 4.60587 17.6583 4.04109C19.477 3.47631 21.4091 3.45053 23.2409 3.96661C25.0727 4.48268 26.733 5.52051 28.0382 6.96539C29.3434 8.41027 30.2427 10.2059 30.6367 12.1539C31.0307 14.1019 30.9041 16.1264 30.2709 18.0035" stroke="#BF9455" stroke-width="4" stroke-linecap="round" stroke-linejoin="round"/>
<path d="M51.4285 7.19971V20.8905C55.6718 23.4685 58.9023 27.5485 60.5417 32.3997H65.1394C66.0487 32.3997 66.9208 32.779 67.5637 33.4541C68.2067 34.1293 68.5679 35.0449 68.5679 35.9997V43.1997C68.5679 44.1545 68.2067 45.0702 67.5637 45.7453C66.9208 46.4204 66.0487 46.7997 65.1394 46.7997H60.5382C59.3862 50.2197 57.4285 53.2797 54.8537 55.7025V62.9997C54.8537 64.4319 54.3118 65.8054 53.3473 66.8181C52.3829 67.8308 51.0748 68.3997 49.7108 68.3997C48.3468 68.3997 47.0387 67.8308 46.0743 66.8181C45.1098 65.8054 44.5679 64.4319 44.5679 62.9997V60.9009C43.435 61.1002 42.2881 61.2001 41.1394 61.1997H27.4251C26.2763 61.2001 25.1295 61.1002 23.9965 60.9009V62.9997C23.9965 64.4319 23.4547 65.8054 22.4902 66.8181C21.5257 67.8308 20.2176 68.3997 18.8537 68.3997C17.4897 68.3997 16.1816 67.8308 15.2171 66.8181C14.2526 65.8054 13.7108 64.4319 13.7108 62.9997V55.7025C10.6044 52.7864 8.41461 48.9485 7.43131 44.6968C6.44802 40.4451 6.71758 35.9802 8.20431 31.8929C9.69105 27.8056 12.3248 24.2888 15.7571 21.8079C19.1893 19.327 23.2582 17.999 27.4251 17.9997H35.9965L51.4251 7.19971H51.4285Z" stroke="#BF9455" stroke-width="4" stroke-linecap="round" stroke-linejoin="round"/>
</svg>
