<svg width="72" height="72" viewBox="0 0 72 72" fill="none" xmlns="http://www.w3.org/2000/svg">
<path d="M51.75 67.5L46.9373 65.2207C45.015 64.3044 43.3908 62.8635 42.2518 61.0642C41.1129 59.2648 40.5056 57.1803 40.5 55.0507V40.5H63V55.053C62.9944 57.1825 62.3871 59.2671 61.2482 61.0664C60.1092 62.8658 58.485 64.3067 56.5627 65.223L51.75 67.5ZM45 45V55.053C45.004 56.3301 45.3688 57.5801 46.0523 58.6589C46.7358 59.7377 47.7102 60.6014 48.8632 61.1505L51.75 62.5185L54.6368 61.1528C55.7901 60.6035 56.7648 59.7394 57.4483 58.6602C58.1319 57.581 58.4964 56.3305 58.5 55.053V45H45Z" fill="#BF9455"/>
<path d="M36 63H13.5V8.99997H31.5V22.5C31.5036 23.6924 31.9788 24.8349 32.822 25.678C33.6651 26.5212 34.8076 26.9964 36 27H49.5V33.75H54V22.5C54.0079 22.2043 53.9517 21.9104 53.8352 21.6385C53.7187 21.3666 53.5446 21.1232 53.325 20.925L37.575 5.17497C37.3769 4.95525 37.1335 4.78111 36.8616 4.66458C36.5897 4.54804 36.2957 4.49188 36 4.49997H13.5C12.3076 4.50353 11.1651 4.97878 10.322 5.82193C9.47881 6.66507 9.00356 7.80759 9 8.99997V63C9.00356 64.1923 9.47881 65.3349 10.322 66.178C11.1651 67.0212 12.3076 67.4964 13.5 67.5H36V63ZM36 9.89997L48.6 22.5H36V9.89997Z" fill="#BF9455"/>
</svg>
