<svg width="118" height="117" viewBox="0 0 118 117" fill="none" xmlns="http://www.w3.org/2000/svg">
<path d="M88.6111 106.744C101.602 106.744 112.132 96.2132 112.132 83.2228C112.132 70.2324 101.602 59.7015 88.6111 59.7015C75.6207 59.7015 65.0898 70.2324 65.0898 83.2228C65.0898 96.2132 75.6207 106.744 88.6111 106.744Z" fill="#E9F4BC"/>
<path d="M88.6102 99.8355C79.4604 99.8355 72.0205 92.3956 72.0205 83.2458C72.0205 74.0961 79.4604 66.6562 88.6102 66.6562C97.7599 66.6562 105.2 74.0961 105.2 83.2458C105.223 92.3725 97.7599 99.8355 88.6102 99.8355Z" fill="#FDE4A1"/>
<path d="M56.8281 57.6398V43.7766H47.586V57.6398H56.8281Z" fill="#BF9455"/>
<path d="M93.3239 21.5315H10.3063C7.85718 21.5315 5.87012 23.4954 5.87012 25.9677V38.7219C5.87012 40.8476 7.37197 42.6729 9.47455 43.0888L47.5984 50.4594V43.782H56.8405V50.3208L94.1788 43.0888C96.2814 42.6729 97.7832 40.8476 97.7832 38.7219V25.9677C97.7601 23.5186 95.75 21.5315 93.3239 21.5315Z" fill="#16293A"/>
<path d="M94.1564 43.0888L56.8181 50.3208V57.6452H47.576V50.4594L9.45213 43.0888C9.42902 43.0888 9.40592 43.0657 9.38281 43.0657V82.0675C9.38281 84.5398 11.3699 86.5269 13.8421 86.5269H65.344C65.1823 85.4409 65.0898 84.3549 65.0898 83.2228C65.0898 70.2376 75.6259 59.7015 88.6111 59.7015C90.5519 59.7015 92.4235 59.9557 94.2257 60.3947V43.0657C94.2026 43.0657 94.1795 43.0888 94.1564 43.0888Z" fill="#F5CB87"/>
<path d="M95.9574 59.0776V44.2902C98.06 43.2736 99.4925 41.1479 99.4925 38.7218V25.9677C99.4925 23.2181 97.6903 20.9307 95.1949 20.122C94.9177 19.9372 94.5942 19.7985 94.2245 19.7985H93.3003C93.2772 19.7985 93.2772 19.7985 93.2772 19.7985H70.6108V12.5434C70.6108 10.3253 68.7855 8.5 66.5674 8.5H37.0387C34.8206 8.5 32.9953 10.3253 32.9953 12.5434V19.7985H10.3059C6.90936 19.7985 4.13672 22.5712 4.13672 25.9677V38.7218C4.13672 41.1479 5.56925 43.2736 7.64873 44.2902V82.0675C7.64873 85.4871 10.4214 88.2597 13.841 88.2597H63.8641C66.1977 99.7893 76.4103 108.5 88.6099 108.5C102.542 108.5 113.864 97.1784 113.864 83.2458C113.864 71.8549 106.309 62.22 95.9574 59.0776ZM7.57942 25.9677C7.60252 24.4658 8.7809 23.2643 10.3059 23.2643H50.9251C51.8724 23.2643 52.658 22.4787 52.658 21.5314C52.658 20.5841 51.8724 19.7985 50.9251 19.7985H36.4611V12.5434C36.4611 12.22 36.7153 11.9658 37.0387 11.9658H66.5674C66.8909 11.9658 67.145 12.22 67.145 12.5434V19.7985H60.1672C59.2199 19.7985 58.4343 20.5841 58.4343 21.5314C58.4343 22.4787 59.2199 23.2643 60.1672 23.2643H93.3234C94.8021 23.2643 96.0267 24.4889 96.0267 25.9677V38.7218C96.0267 40.0157 95.1025 41.1479 93.8317 41.402H93.8086C93.8086 41.402 93.7855 41.402 93.7855 41.4251L58.5498 48.2412V43.805C58.5498 42.8577 57.7643 42.0721 56.8169 42.0721H47.5748C46.6275 42.0721 45.8419 42.8577 45.8419 43.805V48.3798L9.86685 41.402C9.82064 41.402 9.79753 41.3789 9.75132 41.3789C8.48053 41.1017 7.57942 39.9926 7.57942 38.7218V25.9677ZM55.084 45.5148V55.9122H49.3077V45.5148H55.084ZM13.841 84.7939C12.3391 84.7939 11.1145 83.5693 11.1145 82.0675V45.1682L45.8419 51.8919V57.622C45.8419 58.5693 46.6275 59.3549 47.5748 59.3549H56.8169C57.7643 59.3549 58.5498 58.5693 58.5498 57.622V51.7301L92.4916 45.1451V58.2689C91.2208 58.061 89.9269 57.9455 88.6099 57.9455C74.6774 57.9455 63.3558 69.2671 63.3558 83.1996C63.3558 83.7311 63.402 84.2394 63.4251 84.7708H13.841V84.7939ZM88.6099 105.034C76.5951 105.034 66.8216 95.2606 66.8216 83.2458C66.8216 71.2311 76.5951 61.4575 88.6099 61.4575C100.625 61.4575 110.398 71.2311 110.398 83.2458C110.398 95.2606 100.625 105.034 88.6099 105.034Z" fill="black"/>
<path d="M88.6097 64.9001C78.5126 64.9001 70.2871 73.1257 70.2871 83.2227C70.2871 93.3197 78.5126 101.545 88.6097 101.545C98.7067 101.545 106.932 93.3197 106.932 83.2227C106.932 73.1257 98.7298 64.9001 88.6097 64.9001ZM88.6097 98.1026C80.4073 98.1026 73.7529 91.4251 73.7529 83.2458C73.7529 75.0434 80.4073 68.3891 88.6097 68.3891C96.8121 68.3891 103.466 75.0665 103.466 83.2458C103.466 91.4251 96.8121 98.1026 88.6097 98.1026Z" fill="black"/>
<path d="M88.6108 75.8521C90.1589 75.8521 91.4297 77.1229 91.4297 78.671C91.4297 79.6183 92.2153 80.4039 93.1626 80.4039C94.1099 80.4039 94.8955 79.6183 94.8955 78.671C94.8955 75.8059 92.9546 73.4029 90.3437 72.6636V71.7856C90.3437 70.8383 89.5581 70.0527 88.6108 70.0527C87.6635 70.0527 86.8779 70.8383 86.8779 71.7856V72.6636C84.267 73.4261 82.3262 75.8059 82.3262 78.671C82.3262 82.1368 85.145 84.9556 88.6108 84.9556C90.1589 84.9556 91.4297 86.2264 91.4297 87.7745C91.4297 89.3225 90.182 90.6164 88.6108 90.6164C87.0397 90.6164 85.792 89.3456 85.792 87.7976C85.792 86.8503 85.0064 86.0647 84.0591 86.0647C83.1118 86.0647 82.3262 86.8503 82.3262 87.7976C82.3262 90.6626 84.267 93.0656 86.8779 93.805V94.683C86.8779 95.6303 87.6635 96.4159 88.6108 96.4159C89.5581 96.4159 90.3437 95.6303 90.3437 94.683V93.805C92.9546 93.0425 94.8955 90.6626 94.8955 87.7976C94.8955 84.3318 92.0766 81.5129 88.6108 81.5129C87.0628 81.5129 85.792 80.2421 85.792 78.6941C85.792 77.146 87.0628 75.8521 88.6108 75.8521Z" fill="black"/>
<path d="M55.5454 23.2643C56.5025 23.2643 57.2783 22.4884 57.2783 21.5314C57.2783 20.5743 56.5025 19.7985 55.5454 19.7985C54.5883 19.7985 53.8125 20.5743 53.8125 21.5314C53.8125 22.4884 54.5883 23.2643 55.5454 23.2643Z" fill="black"/>
</svg>
