<svg width="106" height="101" viewBox="0 0 106 101" fill="none" xmlns="http://www.w3.org/2000/svg">
<g clip-path="url(#clip0_322_1592)">
<path d="M52.6744 7.93982L89.3048 34.5986L89.3048 91.7969C89.3048 91.7977 89.3048 91.7985 89.3048 91.7993C89.2993 93.4421 88.6442 95.016 87.4825 96.1777C86.3209 97.3394 84.7469 97.9944 83.1041 98C83.1033 98 83.1025 98 83.1017 98H22.2471C22.2463 98 22.2455 98 22.2447 98C20.6019 97.9944 19.0279 97.3394 17.8662 96.1777C16.7048 95.0163 16.0498 93.4427 16.0439 91.8003V34.5986L52.6744 7.93982Z" fill="#F5CB87" stroke="black" stroke-width="5"/>
<path d="M43.9777 59.5217H61.369C61.8591 59.5217 62.3291 59.7164 62.6756 60.0629C63.0222 60.4095 63.2168 60.8795 63.2168 61.3696V98H42.1299V61.3696C42.1299 60.8795 42.3246 60.4095 42.6711 60.0629C43.0176 59.7164 43.4876 59.5217 43.9777 59.5217Z" fill="#16293A" stroke="black" stroke-width="5"/>
<path d="M52.6744 7.74932L53.8507 8.60486L99.1239 41.5304C99.5245 41.8215 100.007 41.9784 100.502 41.9789L52.6744 7.74932ZM52.6744 7.74932L51.498 8.60492M52.6744 7.74932L51.498 8.60492M51.498 8.60492L6.22899 41.5306C6.22897 41.5306 6.22894 41.5306 6.22892 41.5307C6.22876 41.5308 6.22861 41.5309 6.22845 41.531C5.72474 41.8969 5.09635 42.0478 4.4814 41.9505C3.86624 41.8532 3.31493 41.5155 2.94876 41.0117C2.58259 40.5079 2.43155 39.8793 2.52886 39.2641C2.62618 38.6489 2.96388 38.0976 3.46768 37.7315L3.46815 37.7311M51.498 8.60492L3.46815 37.7311M3.46815 37.7311L51.2939 2.94876C51.6951 2.6571 52.1784 2.5 52.6744 2.5C53.1704 2.5 53.6537 2.6571 54.0549 2.94876L101.881 37.7311L101.881 37.7316M3.46815 37.7311L101.881 37.7316M101.881 37.7316C102.283 38.0231 102.581 38.4341 102.734 38.9057M101.881 37.7316L102.734 38.9057M102.734 38.9057C102.887 39.3773 102.887 39.8852 102.734 40.3568M102.734 38.9057L102.734 40.3568M102.734 40.3568C102.581 40.8284 102.282 41.2393 101.881 41.5307M102.734 40.3568L101.881 41.5307M101.881 41.5307C101.48 41.8218 100.998 41.9787 100.502 41.9789L101.881 41.5307Z" fill="#16293A" stroke="black" stroke-width="4"/>
<mask id="mask0_322_1592" style="mask-type:luminance" maskUnits="userSpaceOnUse" x="40" y="35" width="66" height="66">
<path d="M105 68C105 85.6731 90.6731 100 73 100C55.3269 100 41 85.6731 41 68C41 50.3269 55.3269 36 73 36C90.6731 36 105 50.3269 105 68Z" fill="white" stroke="white"/>
</mask>
<g mask="url(#mask0_322_1592)">
<path d="M82.25 84.835V85.2157L82.617 85.317L100.737 90.3178C102.637 90.9755 104.137 92.3922 105 94.2394V100H41V94.2324C41.7989 92.4004 43.353 90.9789 45.2632 90.3178L63.383 85.317L63.75 85.2157V84.835V75.65H82.25V84.835Z" fill="#D4B08C" stroke="black"/>
</g>
<mask id="mask1_322_1592" style="mask-type:luminance" maskUnits="userSpaceOnUse" x="40" y="75" width="66" height="26">
<path d="M82.75 84.835L100.885 89.84C102.965 90.555 104.59 92.115 105.5 94.13V100.5H40.5V94.13C41.345 92.115 43.035 90.555 45.115 89.84L63.25 84.835V75.15H82.75V84.835Z" fill="white"/>
</mask>
<g mask="url(#mask1_322_1592)">
<path d="M73.13 87.5H68.45L65.33 84.25H40.5V100.5H73.13H105.695V84.25H80.93L77.81 87.5H73.13Z" fill="black"/>
</g>
<mask id="mask2_322_1592" style="mask-type:luminance" maskUnits="userSpaceOnUse" x="40" y="75" width="66" height="26">
<path d="M82.75 84.835L100.885 89.84C102.965 90.555 104.59 92.115 105.5 94.13V100.5H40.5V94.13C41.345 92.115 43.035 90.555 45.115 89.84L63.25 84.835V75.15H82.75V84.835Z" fill="white"/>
</mask>
<g mask="url(#mask2_322_1592)">
<path d="M73.0009 87.5001H73.6509L83.2059 82.4951L79.4359 101.28L73.0009 100.565L66.5659 101.28L62.7959 82.4951L72.3509 87.5001H73.0009Z" fill="#C1CAD4"/>
</g>
<mask id="mask3_322_1592" style="mask-type:luminance" maskUnits="userSpaceOnUse" x="40" y="75" width="66" height="26">
<path d="M82.25 84.835V85.2157L82.617 85.317L100.737 90.3178C102.637 90.9755 104.137 92.3922 105 94.2394V100H41V94.2324C41.7989 92.4004 43.353 90.9789 45.2632 90.3178L63.383 85.317L63.75 85.2157V84.835V75.65H82.25V84.835Z" fill="white" stroke="white"/>
</mask>
<g mask="url(#mask3_322_1592)">
<path d="M69.4691 100.65L71.7358 93.85H74.265L76.5317 100.65H69.4691Z" fill="#216DD9" stroke="black"/>
</g>
<mask id="mask4_322_1592" style="mask-type:luminance" maskUnits="userSpaceOnUse" x="40" y="75" width="66" height="26">
<path d="M82.25 84.835V85.2157L82.617 85.317L100.737 90.3178C102.637 90.9755 104.137 92.3922 105 94.2394V100H41V94.2324C41.7989 92.4004 43.353 90.9789 45.2632 90.3178L63.383 85.317L63.75 85.2157V84.835V75.65H82.25V84.835Z" fill="white" stroke="white"/>
</mask>
<g mask="url(#mask4_322_1592)">
<path d="M71.5993 92.85L67.2882 88H78.7114L74.4003 92.85H71.5993Z" fill="#249CF2" stroke="black"/>
</g>
<mask id="mask5_322_1592" style="mask-type:luminance" maskUnits="userSpaceOnUse" x="40" y="75" width="66" height="26">
<path d="M82.25 84.835V85.2157L82.617 85.317L100.737 90.3178C102.637 90.9755 104.137 92.3922 105 94.2394V100H41V94.2324C41.7989 92.4004 43.353 90.9789 45.2632 90.3178L63.383 85.317L63.75 85.2157V84.835V75.65H82.25V84.835Z" fill="white" stroke="white"/>
</mask>
<g mask="url(#mask5_322_1592)">
<path d="M80.4354 93.6295L74.4886 87.5726L82.8703 81.752L80.4354 93.6295ZM65.5678 93.6295L63.1329 81.752L71.5146 87.5726L65.5678 93.6295Z" fill="white" stroke="black"/>
</g>
<path d="M70.0895 82.561L70.0896 82.561L70.0804 82.5569C69.6135 82.3527 68.4848 81.636 67.2807 80.8005C66.0902 79.9745 64.8949 79.0806 64.301 78.5498C62.7941 77.1623 61.986 75.474 61.7333 72.3793C61.6982 71.9494 61.6504 71.3746 61.5938 70.6951C61.2285 66.306 60.5 57.5531 60.5 55.325C60.5 53.6121 61.2704 51.3885 63.2083 49.5896C65.1387 47.7976 68.2592 46.4 73 46.4C77.7408 46.4 80.8613 47.7976 82.7917 49.5896C84.7296 51.3885 85.5 53.6121 85.5 55.325C85.5 57.5765 84.7561 66.5406 84.3948 70.8943C84.3432 71.516 84.2994 72.0436 84.2667 72.4443C84.0131 75.5508 83.265 77.2294 81.7037 78.6105L81.7016 78.6124C81.11 79.1418 79.8983 80.0361 78.6963 80.8646C77.4995 81.6894 76.3769 82.404 75.9239 82.6197C75.149 82.9137 73.9237 83.1 73 83.1C72.0663 83.1 70.8455 82.91 70.0895 82.561Z" fill="#F2CEA5" stroke="black"/>
<path d="M72.5774 76.9261C70.8503 76.8108 69.5283 76.1641 68.7629 75H77.2054C76.212 76.2437 74.3236 77.0386 72.5774 76.9261Z" fill="#A3705F" stroke="black"/>
<path d="M78.8498 66.05C79.5678 66.05 80.1498 65.468 80.1498 64.75C80.1498 64.032 79.5678 63.45 78.8498 63.45C78.1318 63.45 77.5498 64.032 77.5498 64.75C77.5498 65.468 78.1318 66.05 78.8498 66.05Z" fill="#262626"/>
<path d="M67.1496 66.05C67.8676 66.05 68.4496 65.468 68.4496 64.75C68.4496 64.032 67.8676 63.45 67.1496 63.45C66.4316 63.45 65.8496 64.032 65.8496 64.75C65.8496 65.468 66.4316 66.05 67.1496 66.05Z" fill="#262626"/>
<path d="M63.25 62.8C63.25 62.8 63.965 60.85 67.215 60.85C69.425 60.85 70.725 61.825 71.375 62.8" stroke="#BF9455" stroke-width="2"/>
<path d="M82.8148 62.8C82.8148 62.8 82.0998 60.85 78.8498 60.85C75.7298 60.85 74.2998 62.8 74.2998 64.1C74.2998 65.335 74.2998 69.95 74.2998 69.95" stroke="#BF9455" stroke-width="2"/>
<path d="M76.829 52.5419C76.7738 52.5628 76.7208 52.5833 76.672 52.6025C76.6621 52.5902 76.653 52.5777 76.6448 52.5652C76.612 52.515 76.6092 52.4874 76.6094 52.4779L76.6094 52.4779C76.6093 52.4758 76.6083 52.4323 76.6873 52.3445L76.6883 52.3434C77.19 51.7827 78.2873 50.9877 79.4985 50.1938C80.5073 49.5326 81.5504 48.9005 82.3033 48.4442C82.3929 48.3898 82.4785 48.338 82.5593 48.2889C83.1102 48.3196 83.9099 48.5327 84.724 48.9326C85.6005 49.3631 86.4306 49.9797 86.9521 50.7311C87.9044 52.1619 88.1007 53.854 88.1007 55.715C88.1007 57.4154 87.4893 60.4293 87.1944 61.7835C86.7094 62.0148 86.3314 62.4158 86.0399 62.8489C85.9664 62.9581 85.8968 63.0715 85.8311 63.1879C85.8429 62.7254 85.8507 62.3449 85.8507 62.15V62.1492C85.8507 61.7225 85.8507 60.0624 85.6778 58.2592C85.5913 57.3574 85.4606 56.4092 85.2618 55.5558C85.0658 54.7151 84.7931 53.9179 84.3972 53.351C84.0444 52.8338 83.5136 52.4982 82.9364 52.2846C82.358 52.0705 81.7031 51.9674 81.0545 51.9332C79.7681 51.8655 78.4227 52.0653 77.5625 52.3039C77.3529 52.3488 77.0504 52.4579 76.829 52.5419Z" fill="#D98C21" stroke="black"/>
<path d="M65.2252 42.9852C65.2145 42.9016 65.2063 42.8208 65.1998 42.7447C65.2246 42.7493 65.2501 42.7541 65.2762 42.7589C65.7182 42.8405 66.345 42.9456 67.087 43.0404C68.5655 43.2293 70.5216 43.3799 72.3915 43.2134C76.5514 42.899 79.0319 44.1425 80.4692 45.4134C81.1943 46.0546 81.6659 46.7134 81.955 47.2085C82.0737 47.4117 82.1613 47.5868 82.2228 47.7209C82.1317 47.8061 82.0181 47.9123 81.8857 48.0355C81.5212 48.3747 81.015 48.8424 80.4482 49.3566C79.3106 50.3886 77.9436 51.5941 76.987 52.3277C75.536 53.4299 74.1552 53.3181 72.9906 52.8537C72.0951 52.4967 71.3945 51.9707 70.8658 51.5737C70.6706 51.4271 70.4988 51.2981 70.3493 51.2017C69.3083 50.5096 67.923 50.4485 66.5428 50.8652C65.1532 51.2846 63.7123 52.2011 62.4887 53.5606L62.4867 53.5629C61.351 54.8405 60.7794 56.76 60.4831 58.4223C60.1835 60.1034 60.1504 61.6143 60.1504 62.1501C60.1504 62.3492 60.1585 62.7419 60.1707 63.218C60.105 63.1013 60.0355 62.9874 59.962 62.8776C59.6698 62.4407 59.293 62.0354 58.811 61.7926C58.516 60.3922 57.9004 57.4229 57.9004 55.7151V55.7135V55.712V55.7105V55.709V55.7074V55.7059V55.7044V55.7028V55.7013V55.6998V55.6982V55.6967V55.6951V55.6936V55.692V55.6905V55.689V55.6874V55.6859V55.6843V55.6827V55.6812V55.6796V55.6781V55.6765V55.675V55.6734V55.6718V55.6703V55.6687V55.6671V55.6656V55.664V55.6624V55.6609V55.6593V55.6577V55.6561V55.6545V55.653V55.6514V55.6498V55.6482V55.6466V55.645V55.6435V55.6419V55.6403V55.6387V55.6371V55.6355V55.6339V55.6323V55.6307V55.6291V55.6275V55.6259V55.6243V55.6227V55.6211V55.6195V55.6179V55.6163V55.6146V55.613V55.6114V55.6098V55.6082V55.6066V55.6049V55.6033V55.6017V55.6001V55.5985V55.5968V55.5952V55.5936V55.5919V55.5903V55.5887V55.587V55.5854V55.5838V55.5821V55.5805V55.5789V55.5772V55.5756V55.5739V55.5723V55.5706V55.569V55.5673V55.5657V55.564V55.5624V55.5607V55.5591V55.5574V55.5558V55.5541V55.5524V55.5508V55.5491V55.5475V55.5458V55.5441V55.5425V55.5408V55.5391V55.5375V55.5358V55.5341V55.5324V55.5308V55.5291V55.5274V55.5257V55.5241V55.5224V55.5207V55.519V55.5173V55.5156V55.514V55.5123V55.5106V55.5089V55.5072V55.5055V55.5038V55.5021V55.5004V55.4987V55.497V55.4953V55.4936V55.4919V55.4902V55.4885V55.4868V55.4851V55.4834V55.4817V55.48V55.4783V55.4766V55.4749V55.4732V55.4714V55.4697V55.468V55.4663V55.4646V55.4629V55.4611V55.4594V55.4577V55.456V55.4543V55.4525V55.4508V55.4491V55.4473V55.4456V55.4439V55.4422V55.4404V55.4387V55.437V55.4352V55.4335V55.4318V55.43V55.4283V55.4265V55.4248V55.4231V55.4213V55.4196V55.4178V55.4161V55.4143V55.4126V55.4108V55.4091V55.4073V55.4056V55.4038V55.4021V55.4003V55.3986V55.3968V55.3951V55.3933V55.3915V55.3898V55.388V55.3863V55.3845V55.3827V55.381V55.3792V55.3774V55.3757V55.3739V55.3721V55.3704V55.3686V55.3668V55.3651V55.3633V55.3615V55.3597V55.358V55.3562V55.3544V55.3526V55.3508V55.3491V55.3473V55.3455V55.3437V55.3419V55.3401V55.3384V55.3366V55.3348V55.333V55.3312V55.3294V55.3276V55.3258V55.3241V55.3223V55.3205V55.3187V55.3169V55.3151V55.3133V55.3115V55.3097V55.3079V55.3061V55.3043V55.3025V55.3007V55.2989V55.2971V55.2953V55.2935V55.2917V55.2899V55.2881V55.2862V55.2844V55.2826V55.2808V55.279V55.2772V55.2754V55.2736V55.2718V55.2699V55.2681V55.2663V55.2645V55.2627V55.2609V55.259V55.2572V55.2554V55.2536V55.2518V55.2499V55.2481V55.2463V55.2445V55.2426V55.2408V55.239V55.2372V55.2353V55.2335V55.2317V55.2298V55.228V55.2262V55.2244V55.2225V55.2207V55.2189V55.217V55.2152V55.2133V55.2115V55.2097V55.2078V55.206V55.2042V55.2023V55.2005V55.1986V55.1968V55.195V55.1931V55.1913V55.1894V55.1876V55.1857V55.1839V55.182V55.1802V55.1784V55.1765V55.1747V55.1728V55.171V55.1691V55.1673V55.1654V55.1636V55.1617V55.1599V55.158V55.1561V55.1543V55.1524V55.1506V55.1487V55.1469V55.145V55.1432V55.1413V55.1394V55.1376V55.1357V55.1339V55.132V55.1301V55.1283V55.1264V55.1246V55.1227V55.1208V55.119V55.1171V55.1152V55.1134V55.1115V55.1096V55.1078V55.1059V55.104V55.1022V55.1003V55.0984V55.0966V55.0947V55.0928V55.0909V55.0891V55.0872V55.0853V55.0835V55.0816V55.0797V55.0778V55.076V55.0741V55.0722V55.0703V55.0685V55.0666V55.0647V55.0628V55.061V55.0591V55.0572V55.0553V55.0534V55.0516V55.0497V55.0478V55.0459V55.044V55.0422V55.0403V55.0384V55.0365V55.0346V55.0327V55.0309V55.029V55.0271V55.0252V55.0233V55.0214V55.0196V55.0177V55.0158V55.0139V55.012V55.0101V55.0082V55.0063V55.0045V55.0026V55.0007V54.9988V54.9969V54.995V54.9931V54.9912V54.9893V54.9874V54.9856V54.9837V54.9818V54.9799V54.978V54.9761V54.9742V54.9723V54.9704V54.9685V54.9666V54.9647V54.9628V54.961V54.9591V54.9572V54.9553V54.9534V54.9515V54.9496V54.9477V54.9458V54.9439V54.942V54.9401V54.9382V54.9363V54.9344V54.9325V54.9306V54.9287V54.9268V54.9249V54.923V54.9211V54.9192V54.9173V54.9154V54.9135V54.9116V54.9097V54.9078V54.9059V54.904V54.9021V54.9002V54.8983V54.8964V54.8945V54.8926V54.8907V54.8888V54.8869V54.885V54.8831V54.8812V54.8793V54.8774V54.8755V54.8736V54.8717V54.8698V54.8679V54.866V54.8641V54.8622V54.8603V54.8584V54.8565V54.8546V54.8527V54.8508V54.8489V54.847V54.8451V54.8431V54.8412V54.8393V54.8374V54.8355V54.8336V54.8317V54.8298V54.8279V54.826V54.8241V54.8222V54.8203V54.8184V54.8165V54.8146V54.8127V54.8108V54.8089V54.807V54.8051C57.9004 54.2574 57.9612 53.7088 58.0835 53.1585L58.086 53.1472L58.088 53.1357C58.5865 50.2692 60.2487 46.5712 65.4043 45.0804L66.1089 44.8766L65.6617 44.2952C65.4213 43.9827 65.2877 43.4774 65.2252 42.9852Z" fill="#E6A422" stroke="black"/>
</g>
<defs>
<clipPath id="clip0_322_1592">
<rect width="105" height="100" fill="white" transform="translate(0.5 0.5)"/>
</clipPath>
</defs>
</svg>
