<svg width="78" height="101" viewBox="0 0 78 101" fill="none" xmlns="http://www.w3.org/2000/svg">
<g clip-path="url(#clip0_322_1735)">
<path d="M34.9792 29.8771H27.3614L21.8479 43.1137L16.3555 29.8771H8.71661C5.28647 29.8771 2.55078 32.6128 2.55078 36.043V62.9159C2.55078 66.3039 5.28647 69.0817 8.71661 69.0817H11.7469V98.9007H21.8479H31.9489V75.2896L41.1661 48.101V36.043C41.1661 32.6128 38.3883 29.8771 34.9792 29.8771Z" fill="#16293A"/>
<path d="M32.4539 12.7054C32.4539 16.9142 29.9917 20.5548 26.4353 22.2383C25.0465 22.9117 23.4892 23.2904 21.8478 23.2904C20.2064 23.2904 18.6281 22.9117 17.2392 22.2383C13.6828 20.5337 11.2207 16.9142 11.2207 12.7054C11.2207 6.85526 15.9766 2.09937 21.8478 2.09937C27.698 2.09937 32.4539 6.83421 32.4539 12.7054Z" fill="#BF9455"/>
<path d="M72.1381 71.6295C74.8382 60.1944 67.7572 48.7355 56.3221 46.0353C44.887 43.3352 33.4281 50.4163 30.7279 61.8514C28.0278 73.2865 35.1088 84.7453 46.5439 87.4455C57.979 90.1456 69.4379 83.0646 72.1381 71.6295Z" fill="#F5CB87"/>
<path d="M2.55094 58.2231C3.4226 58.2231 4.12922 57.5165 4.12922 56.6448C4.12922 55.7731 3.4226 55.0665 2.55094 55.0665C1.67928 55.0665 0.972656 55.7731 0.972656 56.6448C0.972656 57.5165 1.67928 58.2231 2.55094 58.2231Z" fill="black"/>
<path d="M16.5445 23.6481C18.1649 24.4478 19.9957 24.8687 21.8475 24.8687C23.6994 24.8687 25.4881 24.4478 27.1085 23.6481C31.3172 21.649 34.0108 17.3561 34.0108 12.6843C34.0108 5.97138 28.5394 0.5 21.8265 0.5C15.0925 0.5 9.62109 5.97138 9.62109 12.6843C9.66318 17.4192 12.3147 21.6069 16.5445 23.6481ZM21.8686 3.67761C26.8349 3.67761 30.8963 7.71801 30.8963 12.7054C30.8963 16.1566 28.8972 19.3342 25.7617 20.8283C23.3416 22.0278 20.3745 22.0067 17.9544 20.8283C14.7979 19.3131 12.8408 16.1987 12.8408 12.7054C12.8197 7.71801 16.8812 3.67761 21.8686 3.67761Z" fill="black"/>
<path d="M51.4356 43.8923C48.3632 43.8923 45.4381 44.5025 42.7445 45.6179V36.064C42.7235 31.7921 39.2513 28.3199 34.9794 28.3199H27.3615C26.7302 28.3199 26.162 28.6987 25.9095 29.2879L21.8481 39.0312L17.8077 29.2879C17.5551 28.6987 16.987 28.3199 16.3557 28.3199H8.71676C4.46592 28.3199 0.9937 31.7921 0.972656 36.064V52.4571C0.972656 53.3409 1.68814 54.0354 2.55094 54.0354C3.43478 54.0354 4.12922 53.3409 4.12922 52.4571V52.436V36.064C4.15027 33.4967 6.14942 31.4765 8.71676 31.4765H15.3035L20.3961 43.745C20.859 44.9234 22.795 44.9445 23.3001 43.745L28.4137 31.4765H34.9794C37.5678 31.4765 39.588 33.4967 39.588 36.064V47.2382C33.0013 51.2576 28.561 58.4967 28.561 66.7458C28.561 69.9024 29.1924 72.9116 30.3708 75.6263V97.3014H23.4264V87.4739C23.4264 86.6111 22.7109 85.8956 21.8481 85.8956C20.9853 85.8956 20.2698 86.6111 20.2698 87.4739V97.3014H13.3253V69.0817V58.0758C13.3253 57.213 12.6099 56.4975 11.7471 56.4975C10.8843 56.4975 10.1688 57.213 10.1688 58.0758V67.5244H8.71676C6.19151 67.5244 4.12922 65.4621 4.12922 62.9369V60.8746C4.12922 60.0118 3.43478 59.2963 2.55094 59.2963C1.68814 59.2963 0.993701 60.0118 0.993701 60.8746L0.972656 62.9369C0.9937 67.1877 4.46592 70.66 8.71676 70.681H10.1688V98.9007C10.1688 99.3216 10.3371 99.7425 10.6317 100.037C10.9264 100.332 11.3262 100.5 11.7471 100.5H31.9491C32.37 100.5 32.7698 100.332 33.0644 100.016C33.359 99.7214 33.5274 99.3216 33.5274 98.9007V80.9293C37.7151 86.2113 44.1755 89.6204 51.4356 89.6204C64.0408 89.6204 74.2892 79.3721 74.2892 66.7669C74.2892 54.1616 64.0408 43.8923 51.4356 43.8923ZM51.4356 86.4428C40.577 86.4428 31.7386 77.6044 31.7386 66.7458C31.7386 55.8872 40.577 47.0488 51.4356 47.0488C62.2942 47.0488 71.1326 55.8872 71.1326 66.7458C71.1326 77.6044 62.2942 86.4428 51.4356 86.4428Z" fill="black"/>
<path d="M57.4332 66.7247C56.823 66.1145 55.8129 66.1145 55.2026 66.7247C54.5923 67.335 54.5923 68.3451 55.2026 68.9554L57.1386 70.8914H41.924C41.0612 70.8914 40.3457 71.6069 40.3457 72.4697C40.3457 73.3325 41.0612 74.048 41.924 74.048H57.1386L55.2026 75.984C54.5923 76.5943 54.5923 77.6044 55.2026 78.2146C55.5183 78.5303 55.9181 78.6776 56.3179 78.6776C56.7178 78.6776 57.1176 78.5303 57.4332 78.2146L62.0629 73.585C62.3575 73.2904 62.5258 72.8906 62.5258 72.4697C62.5258 72.0488 62.3575 71.649 62.0629 71.3544L57.4332 66.7247Z" fill="black"/>
<path d="M60.9472 59.4226H45.7325L47.6686 57.4865C48.2788 56.8763 48.2788 55.8662 47.6686 55.2559C47.0583 54.6456 46.0482 54.6456 45.4379 55.2559L40.8083 59.8855C40.198 60.4958 40.198 61.5059 40.8083 62.1162L45.4379 66.7458C45.7536 67.0614 46.1534 67.2087 46.5532 67.2087C46.9531 67.2087 47.3529 67.0614 47.6686 66.7458C48.2788 66.1355 48.2788 65.1254 47.6686 64.5151L45.7325 62.5791H60.9472C61.81 62.5791 62.5255 61.8636 62.5255 61.0008C62.5255 60.138 61.81 59.4226 60.9472 59.4226Z" fill="black"/>
</g>
<defs>
<clipPath id="clip0_322_1735">
<rect width="76.0544" height="100" fill="white" transform="translate(0.972656 0.5)"/>
</clipPath>
</defs>
</svg>
