<svg width="501" height="213" viewBox="0 0 501 213" fill="none" xmlns="http://www.w3.org/2000/svg">
<path d="M125.69 110.91V212.13H101.55V122.61L64.48 93.3601L24.14 125.19V187.99H50.78V142.13H74.91V212.13H0V113.5L24.14 94.4501L48.83 74.9601L48.84 74.9501L64.48 62.6101L83.96 77.9801L101.55 91.8601L125.69 110.91Z" fill="#16293A"/>
<path d="M227.23 65.83V212.13H203.1V77.53L143.81 30.75L124.34 15.38L143.82 0L163.3 15.37L226.28 65.08L227.23 65.83Z" fill="#F5CB87"/>
<path d="M176.46 90.4401V212.13H152.32V102.14L102.84 63.0901L83.36 47.7201L102.84 32.3401L122.32 47.7101L175.28 89.5101L176.46 90.4401Z" fill="#BF9455"/>
<path d="M278.152 137.672C275.496 137.672 273.032 137.256 270.76 136.424C268.52 135.56 266.568 134.344 264.904 132.776C263.272 131.208 261.992 129.368 261.064 127.256C260.136 125.112 259.672 122.76 259.672 120.2C259.672 117.64 260.136 115.304 261.064 113.192C261.992 111.048 263.272 109.192 264.904 107.624C266.568 106.056 268.52 104.856 270.76 104.024C273.032 103.16 275.496 102.728 278.152 102.728C281.256 102.728 284.024 103.272 286.456 104.36C288.92 105.448 290.968 107.016 292.6 109.064L286.552 114.536C285.464 113.256 284.264 112.28 282.952 111.608C281.672 110.936 280.232 110.6 278.632 110.6C277.256 110.6 275.992 110.824 274.84 111.272C273.688 111.72 272.696 112.376 271.864 113.24C271.064 114.072 270.424 115.08 269.944 116.264C269.496 117.448 269.272 118.76 269.272 120.2C269.272 121.64 269.496 122.952 269.944 124.136C270.424 125.32 271.064 126.344 271.864 127.208C272.696 128.04 273.688 128.68 274.84 129.128C275.992 129.576 277.256 129.8 278.632 129.8C280.232 129.8 281.672 129.464 282.952 128.792C284.264 128.12 285.464 127.144 286.552 125.864L292.6 131.336C290.968 133.352 288.92 134.92 286.456 136.04C284.024 137.128 281.256 137.672 278.152 137.672ZM294.403 137L309.235 103.4H318.595L333.475 137H323.587L311.971 108.056H315.715L304.099 137H294.403ZM302.515 130.472L304.963 123.464H321.379L323.827 130.472H302.515ZM338.329 137V103.4H353.689C356.761 103.4 359.401 103.896 361.609 104.888C363.849 105.88 365.577 107.32 366.793 109.208C368.009 111.064 368.617 113.272 368.617 115.832C368.617 118.36 368.009 120.552 366.793 122.408C365.577 124.232 363.849 125.64 361.609 126.632C359.401 127.592 356.761 128.072 353.689 128.072H343.609L347.833 124.088V137H338.329ZM359.113 137L350.761 124.76H360.889L369.289 137H359.113ZM347.833 125.096L343.609 120.728H353.113C355.097 120.728 356.569 120.296 357.529 119.432C358.521 118.568 359.017 117.368 359.017 115.832C359.017 114.264 358.521 113.048 357.529 112.184C356.569 111.32 355.097 110.888 353.113 110.888H343.609L347.833 106.52V125.096ZM376.021 137V103.4H383.845L397.765 126.248H393.637L407.173 103.4H414.997L415.093 137H406.357L406.261 116.696H407.749L397.621 133.688H393.397L382.981 116.696H384.805V137H376.021ZM432.713 116.408H448.313V123.512H432.713V116.408ZM433.385 129.656H450.953V137H423.977V103.4H450.329V110.744H433.385V129.656ZM458.387 137V103.4H467.891V129.464H483.923V137H458.387ZM283.864 162.4H293.368V196H283.864V162.4ZM270.904 196H261.4V162.4H270.904V196ZM284.536 182.896H270.232V175.024H284.536V182.896ZM319.176 196.672C316.488 196.672 314.008 196.24 311.736 195.376C309.464 194.512 307.48 193.296 305.784 191.728C304.12 190.128 302.824 188.272 301.896 186.16C300.968 184.048 300.504 181.728 300.504 179.2C300.504 176.672 300.968 174.352 301.896 172.24C302.824 170.128 304.12 168.288 305.784 166.72C307.48 165.12 309.464 163.888 311.736 163.024C314.008 162.16 316.488 161.728 319.176 161.728C321.896 161.728 324.376 162.16 326.616 163.024C328.888 163.888 330.856 165.12 332.52 166.72C334.184 168.288 335.48 170.128 336.408 172.24C337.368 174.352 337.848 176.672 337.848 179.2C337.848 181.728 337.368 184.064 336.408 186.208C335.48 188.32 334.184 190.16 332.52 191.728C330.856 193.296 328.888 194.512 326.616 195.376C324.376 196.24 321.896 196.672 319.176 196.672ZM319.176 188.8C320.456 188.8 321.64 188.576 322.728 188.128C323.848 187.68 324.808 187.04 325.608 186.208C326.44 185.344 327.08 184.32 327.528 183.136C328.008 181.952 328.248 180.64 328.248 179.2C328.248 177.728 328.008 176.416 327.528 175.264C327.08 174.08 326.44 173.072 325.608 172.24C324.808 171.376 323.848 170.72 322.728 170.272C321.64 169.824 320.456 169.6 319.176 169.6C317.896 169.6 316.696 169.824 315.576 170.272C314.488 170.72 313.528 171.376 312.696 172.24C311.896 173.072 311.256 174.08 310.776 175.264C310.328 176.416 310.104 177.728 310.104 179.2C310.104 180.64 310.328 181.952 310.776 183.136C311.256 184.32 311.896 185.344 312.696 186.208C313.528 187.04 314.488 187.68 315.576 188.128C316.696 188.576 317.896 188.8 319.176 188.8ZM344.986 196V162.4H352.81L366.73 185.248H362.602L376.138 162.4H383.962L384.058 196H375.322L375.226 175.696H376.714L366.586 192.688H362.362L351.946 175.696H353.77V196H344.986ZM401.678 175.408H417.278V182.512H401.678V175.408ZM402.35 188.656H419.918V196H392.942V162.4H419.294V169.744H402.35V188.656ZM439.16 196.672C436.408 196.672 433.752 196.336 431.192 195.664C428.664 194.96 426.6 194.064 425 192.976L428.12 185.968C429.624 186.928 431.352 187.728 433.304 188.368C435.288 188.976 437.256 189.28 439.208 189.28C440.52 189.28 441.576 189.168 442.376 188.944C443.176 188.688 443.752 188.368 444.104 187.984C444.488 187.568 444.68 187.088 444.68 186.544C444.68 185.776 444.328 185.168 443.624 184.72C442.92 184.272 442.008 183.904 440.888 183.616C439.768 183.328 438.52 183.04 437.144 182.752C435.8 182.464 434.44 182.096 433.064 181.648C431.72 181.2 430.488 180.624 429.368 179.92C428.248 179.184 427.336 178.24 426.632 177.088C425.928 175.904 425.576 174.416 425.576 172.624C425.576 170.608 426.12 168.784 427.208 167.152C428.328 165.52 429.992 164.208 432.2 163.216C434.408 162.224 437.16 161.728 440.456 161.728C442.664 161.728 444.824 161.984 446.936 162.496C449.08 162.976 450.984 163.696 452.648 164.656L449.72 171.712C448.12 170.848 446.536 170.208 444.968 169.792C443.4 169.344 441.88 169.12 440.408 169.12C439.096 169.12 438.04 169.264 437.24 169.552C436.44 169.808 435.864 170.16 435.512 170.608C435.16 171.056 434.984 171.568 434.984 172.144C434.984 172.88 435.32 173.472 435.992 173.92C436.696 174.336 437.608 174.688 438.728 174.976C439.88 175.232 441.128 175.504 442.472 175.792C443.848 176.08 445.208 176.448 446.552 176.896C447.928 177.312 449.176 177.888 450.296 178.624C451.416 179.328 452.312 180.272 452.984 181.456C453.688 182.608 454.04 184.064 454.04 185.824C454.04 187.776 453.48 189.584 452.36 191.248C451.272 192.88 449.624 194.192 447.416 195.184C445.24 196.176 442.488 196.672 439.16 196.672Z" fill="#16293A"/>
</svg>
