<svg width="485" height="213" viewBox="0 0 485 213" fill="none" xmlns="http://www.w3.org/2000/svg">
<path d="M125.69 110.91V212.13H101.55V122.61L64.48 93.3601L24.14 125.19V187.99H50.78V142.13H74.91V212.13H0V113.5L24.14 94.4501L48.83 74.9601L48.84 74.9501L64.48 62.6101L83.96 77.9801L101.55 91.8601L125.69 110.91Z" fill="#16293A"/>
<path d="M171.565 90.4401V212.13H147.425V102.14L97.945 63.0901L78.465 47.7201L97.945 32.3401L117.425 47.7101L170.385 89.5101L171.565 90.4401Z" fill="#BF9455"/>
<path d="M227.23 65.83V212.13H203.1V77.53L143.81 30.75L124.34 15.38L143.82 0L163.3 15.37L226.28 65.08L227.23 65.83Z" fill="#F5CB87"/>
<path d="M278.342 141.802C275.686 141.802 273.222 141.386 270.95 140.554C268.71 139.69 266.758 138.474 265.094 136.906C263.462 135.338 262.182 133.498 261.254 131.386C260.326 129.242 259.862 126.89 259.862 124.33C259.862 121.77 260.326 119.434 261.254 117.322C262.182 115.178 263.462 113.322 265.094 111.754C266.758 110.186 268.71 108.986 270.95 108.154C273.222 107.29 275.686 106.858 278.342 106.858C281.446 106.858 284.214 107.402 286.646 108.49C289.11 109.578 291.158 111.146 292.79 113.194L286.742 118.666C285.654 117.386 284.454 116.41 283.142 115.738C281.862 115.066 280.422 114.73 278.822 114.73C277.446 114.73 276.182 114.954 275.03 115.402C273.878 115.85 272.886 116.506 272.054 117.37C271.254 118.202 270.614 119.21 270.134 120.394C269.686 121.578 269.462 122.89 269.462 124.33C269.462 125.77 269.686 127.082 270.134 128.266C270.614 129.45 271.254 130.474 272.054 131.338C272.886 132.17 273.878 132.81 275.03 133.258C276.182 133.706 277.446 133.93 278.822 133.93C280.422 133.93 281.862 133.594 283.142 132.922C284.454 132.25 285.654 131.274 286.742 129.994L292.79 135.466C291.158 137.482 289.11 139.05 286.646 140.17C284.214 141.258 281.446 141.802 278.342 141.802ZM294.593 141.13L309.425 107.53H318.785L333.665 141.13H323.777L312.161 112.186H315.905L304.289 141.13H294.593ZM302.705 134.602L305.153 127.594H321.569L324.017 134.602H302.705ZM338.519 141.13V107.53H353.879C356.951 107.53 359.591 108.026 361.799 109.018C364.039 110.01 365.767 111.45 366.983 113.338C368.199 115.194 368.807 117.402 368.807 119.962C368.807 122.49 368.199 124.682 366.983 126.538C365.767 128.362 364.039 129.77 361.799 130.762C359.591 131.722 356.951 132.202 353.879 132.202H343.799L348.023 128.218V141.13H338.519ZM359.303 141.13L350.951 128.89H361.079L369.479 141.13H359.303ZM348.023 129.226L343.799 124.858H353.303C355.287 124.858 356.759 124.426 357.719 123.562C358.711 122.698 359.207 121.498 359.207 119.962C359.207 118.394 358.711 117.178 357.719 116.314C356.759 115.45 355.287 115.018 353.303 115.018H343.799L348.023 110.65V129.226ZM376.211 141.13V107.53H384.035L397.955 130.378H393.827L407.363 107.53H415.187L415.283 141.13H406.547L406.451 120.826H407.939L397.811 137.818H393.587L383.171 120.826H384.995V141.13H376.211ZM432.903 120.538H448.503V127.642H432.903V120.538ZM433.575 133.786H451.143V141.13H424.167V107.53H450.519V114.874H433.575V133.786ZM458.577 141.13V107.53H468.081V133.594H484.113V141.13H458.577ZM284.054 166.53H293.558V200.13H284.054V166.53ZM271.094 200.13H261.59V166.53H271.094V200.13ZM284.726 187.026H270.422V179.154H284.726V187.026ZM319.366 200.802C316.678 200.802 314.198 200.37 311.926 199.506C309.654 198.642 307.67 197.426 305.974 195.858C304.31 194.258 303.014 192.402 302.086 190.29C301.158 188.178 300.694 185.858 300.694 183.33C300.694 180.802 301.158 178.482 302.086 176.37C303.014 174.258 304.31 172.418 305.974 170.85C307.67 169.25 309.654 168.018 311.926 167.154C314.198 166.29 316.678 165.858 319.366 165.858C322.086 165.858 324.566 166.29 326.806 167.154C329.078 168.018 331.046 169.25 332.71 170.85C334.374 172.418 335.67 174.258 336.598 176.37C337.558 178.482 338.038 180.802 338.038 183.33C338.038 185.858 337.558 188.194 336.598 190.338C335.67 192.45 334.374 194.29 332.71 195.858C331.046 197.426 329.078 198.642 326.806 199.506C324.566 200.37 322.086 200.802 319.366 200.802ZM319.366 192.93C320.646 192.93 321.83 192.706 322.918 192.258C324.038 191.81 324.998 191.17 325.798 190.338C326.63 189.474 327.27 188.45 327.718 187.266C328.198 186.082 328.438 184.77 328.438 183.33C328.438 181.858 328.198 180.546 327.718 179.394C327.27 178.21 326.63 177.202 325.798 176.37C324.998 175.506 324.038 174.85 322.918 174.402C321.83 173.954 320.646 173.73 319.366 173.73C318.086 173.73 316.886 173.954 315.766 174.402C314.678 174.85 313.718 175.506 312.886 176.37C312.086 177.202 311.446 178.21 310.966 179.394C310.518 180.546 310.294 181.858 310.294 183.33C310.294 184.77 310.518 186.082 310.966 187.266C311.446 188.45 312.086 189.474 312.886 190.338C313.718 191.17 314.678 191.81 315.766 192.258C316.886 192.706 318.086 192.93 319.366 192.93ZM345.176 200.13V166.53H353L366.92 189.378H362.792L376.328 166.53H384.152L384.248 200.13H375.512L375.416 179.826H376.904L366.776 196.818H362.552L352.136 179.826H353.96V200.13H345.176ZM401.868 179.538H417.468V186.642H401.868V179.538ZM402.54 192.786H420.108V200.13H393.132V166.53H419.484V173.874H402.54V192.786ZM439.35 200.802C436.598 200.802 433.942 200.466 431.382 199.794C428.854 199.09 426.79 198.194 425.19 197.106L428.31 190.098C429.814 191.058 431.542 191.858 433.494 192.498C435.478 193.106 437.446 193.41 439.398 193.41C440.71 193.41 441.766 193.298 442.566 193.074C443.366 192.818 443.942 192.498 444.294 192.114C444.678 191.698 444.87 191.218 444.87 190.674C444.87 189.906 444.518 189.298 443.814 188.85C443.11 188.402 442.198 188.034 441.078 187.746C439.958 187.458 438.71 187.17 437.334 186.882C435.99 186.594 434.63 186.226 433.254 185.778C431.91 185.33 430.678 184.754 429.558 184.05C428.438 183.314 427.526 182.37 426.822 181.218C426.118 180.034 425.766 178.546 425.766 176.754C425.766 174.738 426.31 172.914 427.398 171.282C428.518 169.65 430.182 168.338 432.39 167.346C434.598 166.354 437.35 165.858 440.646 165.858C442.854 165.858 445.014 166.114 447.126 166.626C449.27 167.106 451.174 167.826 452.838 168.786L449.91 175.842C448.31 174.978 446.726 174.338 445.158 173.922C443.59 173.474 442.07 173.25 440.598 173.25C439.286 173.25 438.23 173.394 437.43 173.682C436.63 173.938 436.054 174.29 435.702 174.738C435.35 175.186 435.174 175.698 435.174 176.274C435.174 177.01 435.51 177.602 436.182 178.05C436.886 178.466 437.798 178.818 438.918 179.106C440.07 179.362 441.318 179.634 442.662 179.922C444.038 180.21 445.398 180.578 446.742 181.026C448.118 181.442 449.366 182.018 450.486 182.754C451.606 183.458 452.502 184.402 453.174 185.586C453.878 186.738 454.23 188.194 454.23 189.954C454.23 191.906 453.67 193.714 452.55 195.378C451.462 197.01 449.814 198.322 447.606 199.314C445.43 200.306 442.678 200.802 439.35 200.802Z" fill="#16293A"/>
</svg>
