<svg width="228" height="213" viewBox="0 0 228 213" fill="none" xmlns="http://www.w3.org/2000/svg">
<path d="M125.69 110.91V212.13H101.55V122.61L64.48 93.3601L24.14 125.19V187.99H50.78V142.13H74.91V212.13H0V113.5L24.14 94.4501L48.83 74.9601L48.84 74.9501L64.48 62.6101L83.96 77.9801L101.55 91.8601L125.69 110.91Z" fill="#F4F5F1"/>
<path d="M171.565 90.4401V212.13H147.425V102.14L97.945 63.0901L78.465 47.7201L97.945 32.3401L117.425 47.7101L170.385 89.5101L171.565 90.4401Z" fill="#BF9455"/>
<path d="M227.23 65.83V212.13H203.1V77.53L143.81 30.75L124.34 15.38L143.82 0L163.3 15.37L226.28 65.08L227.23 65.83Z" fill="#F5CB87"/>
</svg>
